HIERARCHY
ROOT root
{
	OFFSET 0.000000 0.000000 0.000000
	CHANNELS 6 Xposition Yposition Zposition Zrotation Yrotation Xrotation
	JOINT lhip
	{
		OFFSET 0.058581 -0.082280 -0.017664
		CHANNELS 3 Zrotation Yrotation Xrotation
		JOINT lknee
		{
			OFFSET 0.043451 -0.386469 0.008037
			CHANNELS 3 Zrotation Yrotation Xrotation
			JOINT lankle
			{
				OFFSET -0.014790 -0.426874 -0.037428
				CHANNELS 3 Zrotation Yrotation Xrotation
				JOINT ltoe
				{
					OFFSET 0.041054 -0.060286 0.122042
					CHANNELS 3 Zrotation Yrotation Xrotation
					End Site
					{
						OFFSET 0.000000 0.000000 0.000000
					}
				}
			}
		}
	}
	JOINT rhip
	{
		OFFSET -0.060310 -0.090513 -0.013543
		CHANNELS 3 Zrotation Yrotation Xrotation
		JOINT rknee
		{
			OFFSET -0.043257 -0.383688 -0.004843
			CHANNELS 3 Zrotation Yrotation Xrotation
			JOINT rankle
			{
				OFFSET 0.019056 -0.420046 -0.034562
				CHANNELS 3 Zrotation Yrotation Xrotation
				JOINT rtoe
				{
					OFFSET -0.034840 -0.062106 0.130323
					CHANNELS 3 Zrotation Yrotation Xrotation
					End Site
					{
						OFFSET 0.000000 0.000000 0.000000
					}
				}
			}
		}
	}
	JOINT lowerback
	{
		OFFSET 0.004439 0.124404 -0.038385
		CHANNELS 3 Zrotation Yrotation Xrotation
		JOINT upperback
		{
			OFFSET 0.004488 0.137956 0.026820
			CHANNELS 3 Zrotation Yrotation Xrotation
			JOINT chest
			{
				OFFSET -0.002265 0.056032 0.002855
				CHANNELS 3 Zrotation Yrotation Xrotation
				JOINT lowerneck
				{
					OFFSET -0.013390 0.211636 -0.033468
					CHANNELS 3 Zrotation Yrotation Xrotation
					JOINT upperneck
					{
						OFFSET 0.010113 0.088937 0.050410
						CHANNELS 3 Zrotation Yrotation Xrotation
						End Site
						{
							OFFSET 0.000000 0.000000 0.000000
						}
					}
				}
				JOINT lclavicle
				{
					OFFSET 0.071702 0.114000 -0.018898
					CHANNELS 3 Zrotation Yrotation Xrotation
					JOINT lshoulder
					{
						OFFSET 0.122921 0.045205 -0.019046
						CHANNELS 3 Zrotation Yrotation Xrotation
						JOINT lelbow
						{
							OFFSET 0.255332 -0.015649 -0.022946
							CHANNELS 3 Zrotation Yrotation Xrotation
							JOINT lwrist
							{
								OFFSET 0.265709 0.012698 -0.007375
								CHANNELS 3 Zrotation Yrotation Xrotation
								End Site
								{
									OFFSET 0.000000 0.000000 0.000000
								}
							}
						}
					}
				}
				JOINT rclavicle
				{
					OFFSET -0.082954 0.112472 -0.023707
					CHANNELS 3 Zrotation Yrotation Xrotation
					JOINT rshoulder
					{
						OFFSET -0.113228 0.046853 -0.008472
						CHANNELS 3 Zrotation Yrotation Xrotation
						JOINT relbow
						{
							OFFSET -0.260127 -0.014369 -0.031269
							CHANNELS 3 Zrotation Yrotation Xrotation
							JOINT rwrist
							{
								OFFSET -0.269108 0.006794 -0.006027
								CHANNELS 3 Zrotation Yrotation Xrotation
								End Site
								{
									OFFSET 0.000000 0.000000 0.000000
								}
							}
						}
					}
				}
			}
		}
	}
}
MOTION
Frames: 12
Frame Time: 0.033333
-0.108540 0.746207 1.017426 -6.743359 0.925193 86.297145 1.319931 1.478108 4.897046 -3.379478 -4.995125 14.644676 3.334055 12.331787 -18.598333 0.000000 -0.000000 0.000000 3.159067 -0.269445 0.934411 1.938246 4.459163 12.243042 2.952680 -1.432336 -12.154690 0.000000 -0.000000 0.000000 -0.134769 -0.024976 7.609266 1.512729 -2.348918 0.757848 0.367226 -1.793233 4.229711 2.821715 6.880022 -0.670257 -1.774804 3.171019 6.422280 -26.790317 4.183399 1.755122 -58.087503 -5.961637 8.875253 9.609860 -31.727159 6.115416 -0.479557 -3.496065 -4.446721 28.886548 -0.928371 2.271046 59.793713 3.877875 11.315903 -20.178773 23.049504 -9.902946 3.918489 1.480393 -7.783601 
-0.116131 0.740562 1.016519 -6.262578 0.565390 85.528494 1.808000 0.817097 1.796802 -4.580204 -3.017985 22.660238 2.913342 11.897169 -18.380023 0.000000 -0.000000 0.000000 3.057664 -0.559952 2.414094 2.193584 4.226052 12.052418 2.302465 -1.448037 -12.731859 0.000000 -0.000000 0.000000 0.217049 0.851919 8.704435 1.683149 -2.464739 0.927626 0.298803 -1.728797 4.480948 3.022900 6.746774 -1.846037 -1.498810 2.684857 6.615724 -27.159582 3.673424 2.019154 -57.767207 -6.155340 9.069496 9.426978 -31.579311 6.498275 -0.609022 -3.540854 -4.230316 29.092438 -0.308184 2.338029 61.068032 4.140816 11.593687 -19.992228 22.636552 -9.377821 3.216409 1.488984 -8.093434 
-0.125179 0.732984 1.016707 -6.208414 0.578077 83.969836 2.817436 0.461097 -0.181976 -4.923477 -0.550585 30.069250 -0.230010 11.309677 -18.176297 0.000000 -0.000000 0.000000 3.945501 -0.755368 5.054904 1.460201 4.215819 11.409519 1.639761 -1.449344 -13.433303 0.000000 -0.000000 0.000000 0.746148 2.230096 9.870096 2.343620 -3.126044 3.065884 -0.185090 -1.252816 3.406944 3.341405 6.930612 -1.859544 -0.933397 2.148675 5.398182 -27.096461 2.142428 2.058558 -57.876629 -5.010844 10.119901 9.685418 -31.911444 5.238702 8.765722 -3.888146 -7.489291 29.157682 1.055311 2.363939 62.553777 4.025260 12.089330 -20.936431 22.130163 -10.439913 -4.145219 3.169339 -4.384601 
-0.133972 0.723873 1.017168 -6.407527 0.165684 83.038735 3.089262 0.026618 -3.583833 -4.239018 2.298418 37.407916 -0.528065 11.857196 -17.590381 0.000000 -0.000000 0.000000 4.013379 -1.257506 6.886109 1.139688 4.428978 11.101351 0.985815 -1.054692 -14.149801 0.000000 -0.000000 0.000000 1.026638 3.526619 11.234198 2.410020 -3.241087 3.141090 -0.085312 -1.069141 3.346874 3.479794 6.231066 -2.130195 -0.429724 2.268852 5.045506 -27.404855 2.128803 2.848219 -58.473327 -4.489875 9.624133 10.094822 -33.273840 5.837326 10.527130 -3.610159 -8.944620 28.203481 1.715351 2.442750 63.336533 3.394650 13.003789 -21.063518 24.730558 -8.176446 -5.235355 3.654569 -4.233492 
-0.138601 0.717833 1.017335 -6.441619 -0.201513 82.732852 3.025372 -0.384499 -5.942205 -3.668385 3.813001 40.633530 -0.104049 12.472104 -17.068871 0.000000 -0.000000 0.000000 3.911151 -1.478004 7.889694 0.951485 4.708519 10.712923 0.841092 -1.074154 -14.263868 0.000000 -0.000000 0.000000 1.083470 4.079927 11.721412 2.270355 -3.133914 2.782248 -0.144745 -0.887852 3.596203 3.655794 5.795889 -2.282395 -0.102045 2.330783 5.440354 -27.477410 2.451831 2.899475 -58.660094 -4.354972 9.687951 10.084840 -33.606167 5.716661 11.226603 -3.547303 -9.372298 27.863399 1.923130 2.469272 62.937276 3.459276 13.569664 -20.288239 25.902883 -7.016734 -5.820747 4.085420 -3.773466 
-0.144287 0.709140 1.017777 -6.719926 -0.790951 82.430013 2.743693 -1.127011 -8.808849 -2.993522 5.764023 43.137561 0.277177 13.360118 -15.816944 0.000000 -0.000000 0.000000 3.570267 -1.639627 9.175061 0.788305 5.272879 10.112072 0.931463 -1.024313 -14.298080 0.000000 -0.000000 0.000000 1.113640 4.907789 12.223232 1.974614 -2.954732 2.253818 -0.261906 -0.701669 3.903940 3.771437 5.362645 -2.454024 0.236289 2.351582 6.161019 -27.426210 3.140133 2.784968 -58.985917 -4.099031 9.939573 9.984595 -33.926431 5.674764 11.385431 -3.598437 -9.666253 27.419735 1.982323 2.313363 61.893531 3.668893 14.404878 -18.961927 27.514008 -5.126360 -5.772693 4.665400 -3.008002 
-0.149558 0.699608 1.018408 -7.178732 -1.195078 82.071676 2.448597 -1.745447 -10.993460 -2.716574 7.126270 43.397739 0.353427 13.768131 -15.225890 0.000000 -0.000000 0.000000 3.322355 -1.949848 10.590483 0.615526 6.063555 9.356419 0.911571 -0.847984 -14.447012 0.000000 -0.000000 0.000000 1.337809 5.617604 12.747281 1.642013 -2.782199 1.999051 -0.306242 -0.468256 3.847879 3.613766 4.797784 -2.035517 0.340197 2.679897 6.038443 -27.687386 3.430828 2.385495 -59.045263 -3.043481 9.966653 9.890352 -34.301655 5.635459 11.098691 -3.784350 -9.468113 27.199789 2.126801 2.209257 59.960851 3.892859 14.461547 -17.070975 29.260667 -2.734981 -5.284655 5.364604 -2.416248 
-0.154717 0.690120 1.017899 -7.673583 -1.390173 82.017823 2.199549 -2.086534 -13.243605 -2.896935 7.751331 41.968280 0.240686 13.451351 -14.950936 0.000000 -0.000000 0.000000 3.154606 -2.500752 11.639945 0.565890 7.018056 8.699258 1.233959 -0.634608 -14.662217 0.000000 -0.000000 0.000000 1.755434 5.938660 12.951794 1.186358 -2.378370 1.859234 -0.675070 -0.031204 3.826065 3.878954 4.838373 -2.198968 0.657604 2.560637 6.675760 -26.959561 3.417351 0.762951 -59.834142 -1.299817 10.629134 10.061330 -34.055524 5.409069 8.587604 -3.831374 -8.470308 27.180830 2.500351 2.199242 58.022280 4.254954 13.452593 -15.387981 30.900780 -0.867877 -3.142152 5.971477 -0.648013 
-0.159137 0.681085 1.017271 -8.370535 -1.541784 82.018111 1.897403 -2.546784 -14.927544 -3.228494 8.615390 38.678502 0.312606 13.224222 -14.372361 0.000000 -0.000000 0.000000 2.940166 -2.685309 12.703484 0.559638 7.387962 7.925199 1.191854 -0.154699 -14.745927 0.000000 -0.000000 0.000000 1.980284 6.510661 13.434576 1.055970 -2.456627 1.527403 -0.486318 0.079820 3.879608 3.256990 4.682088 -2.326838 0.294037 3.043390 5.970467 -27.428382 3.740218 1.444308 -59.899933 -1.128657 10.748378 9.531598 -34.149954 6.340401 9.727457 -4.166977 -9.095470 26.234915 2.860865 2.185487 56.589384 4.997310 14.281914 -14.251676 31.973489 0.498619 -4.005615 6.487725 -1.468781 
-0.164585 0.668181 1.015379 -9.024513 -1.484834 82.147797 1.315791 -2.503613 -16.557579 -3.529431 8.662410 32.899276 0.080049 12.535598 -13.494319 0.000000 -0.000000 0.000000 2.868284 -3.109730 13.966291 0.646584 8.199590 7.061045 1.322179 0.257855 -14.948415 0.000000 -0.000000 0.000000 2.328752 6.599701 13.665397 0.739329 -2.311823 1.438463 -0.576763 0.420300 3.754170 3.279016 4.809713 -2.600671 0.542498 3.132254 6.103718 -26.990762 3.565689 0.768870 -60.852767 0.045031 11.204878 9.673837 -33.469139 6.463858 8.201060 -4.348136 -8.512390 25.748989 3.558627 2.166912 54.905106 5.839474 13.456578 -13.506408 32.753973 1.445190 -3.051979 7.082675 -0.147482 
-0.168785 0.657340 1.012878 -9.292925 -1.253648 82.397224 0.745531 -2.548290 -17.444746 -3.572686 8.512934 26.848688 -0.315957 12.147746 -12.583864 0.000000 -0.000000 0.000000 3.007684 -3.413717 14.871088 0.734941 8.582787 6.257264 1.405872 0.519194 -15.034279 0.000000 -0.000000 0.000000 2.579177 6.701766 13.652895 0.652177 -2.475800 1.407720 -0.409841 0.580721 3.593683 3.091703 4.738274 -2.415959 0.559425 3.326180 5.577441 -27.187834 3.257914 0.537208 -61.061547 0.772006 11.213240 9.544385 -32.901227 6.766646 7.998125 -4.476994 -8.478096 25.200289 3.850899 2.227593 53.608127 6.762701 13.005296 -13.083658 32.975045 1.826267 -3.125839 7.214271 -0.169646 
-0.172993 0.645968 1.009980 -9.420765 -0.829317 82.659700 0.057541 -2.224151 -18.099976 -3.338726 8.072238 20.707661 -0.280093 11.665408 -11.243934 0.000000 -0.000000 0.000000 3.433058 -3.828668 15.675914 0.727553 9.080986 5.816244 1.269738 0.692807 -15.442549 0.000000 -0.000000 0.000000 2.900309 6.470589 13.574344 0.567822 -2.514268 1.283170 -0.404357 0.737326 3.513670 3.235425 4.796846 -2.435323 0.773044 3.389508 5.718363 -26.973069 2.988641 0.042313 -61.651942 1.366459 11.282869 9.750696 -32.067412 6.682881 7.202308 -4.526512 -7.755028 24.944938 4.193380 2.118253 52.719607 7.357996 12.149318 -13.202062 32.926201 1.542188 -2.878462 7.497264 0.223774 
